<?xml version="1.0" encoding="utf-8"?>
<!-- Generator: Adobe Illustrator 24.2.3, SVG Export Plug-In . SVG Version: 6.00 Build 0)  -->
<svg version="1.1" id="图层_1" xmlns="http://www.w3.org/2000/svg" xmlns:xlink="http://www.w3.org/1999/xlink" x="0px" y="0px"
	 viewBox="0 0 155 47" style="enable-background:new 0 0 155 47;" xml:space="preserve">
<style type="text/css">
	.st0{display:none;clip-path:url(#SVGID_2_);}
	.st1{display:inline;fill:#377DFF;}
	.st2{display:inline;opacity:0.65;fill:#377DFF;enable-background:new    ;}
	.st3{display:inline;opacity:0.5;fill:#00DFFC;enable-background:new    ;}
	.st4{display:inline;opacity:0.7;fill:#377DFF;enable-background:new    ;}
	.st5{display:inline;fill:#FFFFFF;}
	.st6{fill:#0697F5;}
	.st7{fill:#04CAC6;}
	.st8{fill:#333333;}
</style>
<g>
	<defs>
		<rect id="SVGID_1_" y="0.2" width="154.9" height="46.1"/>
	</defs>
	<clipPath id="SVGID_2_">
		<use xlink:href="#SVGID_1_"  style="overflow:visible;"/>
	</clipPath>
	<g class="st0">
		<path class="st1" d="M58.9,38.4V10.2h17.9v5.2H65.6v6.1H74v5.2h-8.4v11.7H58.9L58.9,38.4z"/>
		<path class="st1" d="M86.2,16v4.2c1.6-2.9,3.7-4.4,6.3-4.4v7h-1.6c-1.5,0-2.7,0.4-3.5,1.1c-0.8,0.8-1.2,2.1-1.2,3.9v10.6h-6.7V16
			H86.2z"/>
		<path class="st1" d="M95.9,35.5c-2.2-2.1-3.3-4.9-3.3-8.4s1.1-6.2,3.3-8.3c2.2-2.1,4.9-3.1,8.1-3.1s5.9,1,8.1,3.1
			c2.2,2.1,3.3,4.8,3.3,8.3s-1.1,6.2-3.3,8.4c-2.2,2.2-4.9,3.2-8.1,3.2S98.1,37.6,95.9,35.5z M107.3,31.4c0.9-1,1.3-2.4,1.3-4.2
			s-0.5-3.2-1.4-4.2c-0.9-1-2-1.4-3.3-1.4c-1.3,0-2.3,0.5-3.2,1.4c-0.9,1-1.4,2.3-1.4,4.2s0.5,3.2,1.4,4.2c0.9,1,2,1.4,3.3,1.4
			S106.4,32.3,107.3,31.4z"/>
		<path class="st1" d="M124.5,16v3.3c1.4-2.4,3.6-3.5,6.6-3.5c2.5,0,4.5,0.9,6.1,2.6c1.6,1.7,2.3,4,2.3,7v13.1h-6.7V26.2
			c0-1.4-0.4-2.6-1.1-3.4c-0.7-0.8-1.8-1.2-3.1-1.2c-1.3,0-2.3,0.4-3.1,1.2c-0.7,0.8-1.1,1.9-1.1,3.4v12.2h-6.7V16H124.5z"/>
		<path class="st1" d="M152.5,32.6h2.4v5.8h-3.4c-2.5,0-4.4-0.6-5.7-1.7s-2-3-2-5.7v-9.3h-2V16h2v-5.5h6.7V16h4.4v5.7h-4.4V31
			C150.5,32,151.2,32.6,152.5,32.6z"/>
		<path class="st2" d="M23,41.3c-9.9,0-18-8-18-18c0-9.9,8-18,18-18h11.3c3.7,0,6.6,3,6.6,6.6v11.4C41,33.2,32.9,41.3,23,41.3z"/>
		<path class="st3" d="M28,36.2c-9.9,0-18-8-18-18c0-9.9,8-18,18-18h11.3C43,0.3,46,3.3,46,6.9v11.4C46,28.2,38,36.2,28,36.2z"/>
		<path class="st4" d="M18,46.3c-10,0-18-8-18-18c0-9.9,8-18,18-18h11.3c3.7,0,6.6,3,6.6,6.6v11.4C35.9,38.3,27.9,46.3,18,46.3z"/>
		<path class="st5" d="M17.4,34.3V18.6h10.2v2.9h-6.4v3.4H26v2.9h-4.8v6.5H17.4L17.4,34.3z"/>
	</g>
</g>
<g>
	<g>
		<path class="st6" d="M36.3,3.9c1.4-1.5,3-3.1,5.2-3.2c3.6-0.4,7.2,3.1,6.5,6.8c-0.3,2.3-2,4.1-3.7,5.7c-1.8,1.7-3.4,3.6-5.1,5.3
			c-1.5,1.6-3.3,3-4.4,4.9c1.5,2,3.5,3.7,5.2,5.6c2.2,2.5,4.8,4.7,6.8,7.5c1.7,2.3,1.5,5.7-0.5,7.7c-2.2,2.2-6.3,2.6-8.5,0.1
			C31.7,37.7,25.6,31,19.3,24.5c-0.4-0.5-1.2-1.1-0.9-1.8c0.5-0.8,1.2-1.4,1.8-2C25.6,15.1,31,9.5,36.3,3.9z"/>
	</g>
	<g>
		<path class="st7" d="M18,1c2.3-0.5,4.9-0.6,7.1,0.4c3.4,1.7,4.3,6.8,1.7,9.5c-2.4,2.9-6.8,1.7-9.8,3.8c-2.5,1.9-4.5,4.6-4.6,7.8
			c-0.5,5,3.3,10,8.2,10.8c2.1,0.4,4.5,0.5,5.9,2.3c2.8,2.8,1.8,8.1-1.7,9.8c-1.7,0.9-3.7,0.5-5.5,0.3c-5.5-0.6-10.7-3.7-14.1-8
			c-3.6-4.4-5.8-10.1-5-15.8c0.3-4.9,2.3-9.6,5.4-13.4C8.8,4.6,13.3,2.2,18,1z"/>
	</g>
	<g>
		<path class="st8" d="M124,4.2c1.4-1,3.2-0.4,4.7-0.2c0.3,4.6,0,9.3,0.1,13.9c-0.1,1,0.8,1.8,1.1,2.7c-0.2,0.9-1,1.5-1.1,2.4
			c-0.1,0.7-0.1,1.5-0.2,2.2c-1.5,0.3-3.1,0.3-4.7-0.1c-0.1-1-0.3-2.1-0.5-3.1c-2.1-0.5-4.3,0-6.4-0.4c0-0.5-0.1-1.1-0.1-1.6
			c1.9-0.9,4-0.1,6-0.5c1.6-1.4,0.6-3.8,0.7-5.7c-1.3-0.3-2.7-0.5-4-0.8c-0.3-0.8-0.3-1.6,0-2.4c1.4-0.1,2.8,0.5,4.1-0.1
			c0.1-0.9,0.3-1.9-0.3-2.7c-1.2-0.7-2.9-0.2-3.9-1.2c-0.1-0.6-0.3-1.5,0.3-1.9C121.2,4.4,122.7,5.1,124,4.2z"/>
		<path class="st8" d="M58.1,4.4c0.8-0.8,2-0.5,3.1-0.6C62.8,3.5,64.1,4.9,65,6c-0.1,1.3-1.8,2-1.7,3.4c-0.2,1.3,0.9,2.3,1.6,3.2
			c0.2,1.2-1.4,1.8-1.4,2.9c-0.2,3.2,0.2,6.3-0.2,9.5c-2.3,0.6-4.8,0.2-7.2,0.3c-0.1-0.6-0.2-1.2-0.2-1.8c0.7-0.3,1.4-0.5,2-0.8
			c0.3-2.1,0.2-4.2,0-6.2c-0.7-0.1-1.4-0.3-2.1-0.4c0-0.6-0.1-1.1-0.1-1.7c0.9-0.5,2.3-0.8,2.3-2c0.1-1.5,0.1-3-0.1-4.5
			c-0.5-0.7-1.5-0.6-2.2-1c0-0.5,0-1,0-1.4C56.5,5.3,57.4,5,58.1,4.4z"/>
		<path class="st8" d="M97.3,6.9c2.3-1.1,4.6-2.1,6.9-3.2c0.6,0.9,0.6,2.1,0.3,3.1c-0.4,1.2-1.8,1.3-2.8,1.8c-1.8,0.6-3.3,1.9-5.2,2
			C96.6,9.4,95.9,7.5,97.3,6.9z"/>
		<path class="st8" d="M131.1,5.7c1.2-0.3,2.6-0.5,3.1-1.8c1.1,0,2.3-0.1,3.4,0c1.3,0,1.8,1.7,3.1,1.8c1.9,0.3,3.6-0.6,5.1-1.6
			c1.2-0.2,2.5-0.2,3.7,0c0.6,0.4,1.1,1,1.8,1.4c1.2,0.1,2.4,0,3.5,0.3c0,0.6,0,1.2,0,1.8c-1.5,0.5-3.4-0.4-4.6,0.8
			c0.1,0.2,0.2,0.7,0.3,1c1.3,0.1,2.6,0.1,3.9,0.3c0.6,2.1-1.3,3.7-1.5,5.7c-0.6,3,0.8,5.8,1.5,8.6c0.1,0.5,0.3,1.2-0.3,1.4
			c-1.1,0.5-2.3,0.2-3.5,0c-0.6,0-0.7-0.7-0.8-1.1c-0.7-2.4-1.2-5-2-7.4c-0.6,2.2-1.1,4.5-1.7,6.7c-0.5,2.1-3.2,2.2-5,1.9
			c0-3,1.6-5.7,1.9-8.6c0.2-1.5-0.9-2.8-1-4.2c1.3-0.1,2.9-0.6,4,0.3c0.8,0.9,1.2,2,1.9,2.9c0.7-1.1,1.2-2.4,1.4-3.7
			c-2.5-0.9-5.2-0.2-7.8-0.5c-0.1-0.6-0.1-1.3,0-1.9c1.1-0.2,2.2-0.3,3.3-0.4c0.2-0.6,0.3-1.4-0.5-1.5c-1.6-0.2-3.4-0.7-5,0
			c-0.5,1-0.4,2.2-0.4,3.2c0.6,0.6,1.5,1.1,1.9,1.9c-0.3,1-1.4,1.4-1.7,2.4c-0.4,3.2,0.2,6.5-0.3,9.7c-0.1,0.1-0.4,0.3-0.5,0.4
			c-2.3,0.1-4.7,0.2-7-0.1c-0.1-0.6,0-1.2,0.1-1.8c0.7-0.2,1.4-0.4,2.1-0.6c0.3-2.1,0.3-4.2,0-6.3c-0.8-0.1-1.6-0.3-2.4-0.4
			c0-0.6,0-1.2,0.1-1.8c0.7-0.3,1.6-0.4,2.1-1c0.4-0.5,0.4-1.3,0.4-1.9c0-1.2,0.1-2.5-0.4-3.7c-0.7-0.1-1.4-0.1-2-0.2
			C131.2,6.9,131.1,6.3,131.1,5.7z"/>
		<g>
			<path class="st8" d="M65.5,4.5c3.3-0.5,6.6-0.1,9.9-0.2C76.6,4.4,78,4,79,4.8c0.1,0.6,0.2,1.6-0.6,1.7c-1.1,0.1-2.2,0-3.3,0.2
				c-0.6,0.5-0.6,1.6,0.1,2.1c1.4,0.2,2.9,0,4.3,0.4c-0.1,0.6,0.1,1.4-0.5,1.9c-1.4,0.3-2.9,0-4.2,0.4c0,0.6-0.3,1.4,0.3,1.8
				c1.2,0.4,2.5,0.3,3.7,0.8c0.3,2.3,0.1,4.6,0.2,6.9c0,1.5,0.2,3-0.4,4.3c-3.2,0.1-6.5,0-9.7,0.1c-1,0-2.1,0-3.1-0.2
				c-0.3-1.9-0.1-3.8-0.1-5.8c0-1.9-0.2-3.8,0.2-5.7c1.2-0.3,2.6,0.1,3.6-0.8c0-0.5,0-1.1-0.1-1.6c-1.2-0.2-2.5-0.1-3.7-0.2
				c-0.7-0.4-0.4-1.3-0.5-2c1.3-0.3,2.6-0.2,4-0.4c0.7-0.5,0.3-1.4,0.2-2c-1.2-0.2-2.5-0.2-3.7-0.3C65.5,5.8,65.5,5.2,65.5,4.5z
				 M71.4,15.7c-0.6,0.2-0.6,0.9-0.6,1.4c0,1.7-0.1,3.3,0.1,5c0,1.6,3.1,1.6,2.9,0c0-2,0.1-4,0-5.9C73.2,15.4,72.1,15.5,71.4,15.7z"
				/>
		</g>
		<path class="st8" d="M81.7,6.7c-1.2,0-1.2-2.3,0-2.3c3.7-0.2,7.4,0,11.1-0.1c1,0.1,2.2-0.1,3.1,0.5c0.7,0.6,0.1,1.4-0.2,2
			c-0.6,1.1-0.7,2.3-1.3,3.4c-0.9,0.8-2.7,1.4-3.5,0.2c0.1-1.2,0.4-2.4,0.2-3.6C88,6.6,84.8,7,81.7,6.7z"/>
		<path class="st8" d="M106.4,4.5c2-0.2,4.1-0.1,6.2-0.2c1.9,0,3.8-0.1,5.7,0.2c0,0.6,0,1.2-0.1,1.8c-0.8,0.2-1.7,0.1-2.3,0.7
			c0,0.3,0.1,0.9,0.1,1.2c0.7,0.1,1.4,0.2,2.1,0.3c0.3,0.7,0.4,1.4,0,2c-0.8,0.1-1.5,0.2-2.3,0.4c0,0.2,0,0.7,0,1
			c0.7,0.3,1.6,0.3,2.2,0.8c0.1,0.5,0.1,0.9,0.2,1.4c-0.8,0.3-1.5,0.5-2.3,0.8c-0.3,3.1,0.1,6.3-0.2,9.4c0.1,0.7-0.7,1-1.2,0.9
			c-1.3,0.1-2.7,0.1-4-0.3c-0.2-3.5,0.1-6.9-0.1-10.4c-0.3,0-0.8,0.1-1.1,0.2c-0.2,3.4,0.1,6.9-0.2,10.3c-0.8,0.2-1.7,0.4-2.4-0.2
			c-0.3-0.5-0.2-1.1-0.2-1.7c0-3.2,0-6.5,0-9.7c-0.1-0.7,0.5-1.4,1.2-1.3c0.9,0,1.7,0,2.6-0.1c0-0.3,0-1,0-1.3
			c-1.4-0.5-2.8-0.1-4.2-0.4c-0.1-0.7,0-1.3,0.2-2c1.4,0,2.8,0,4.1-0.3c0-0.5-0.1-1-0.1-1.5c-1.2-0.2-2.5-0.2-3.7-0.2
			C106.2,5.9,106.2,5.2,106.4,4.5z"/>
		<path class="st8" d="M81.6,7.5c1.1,0,2.4-0.2,3.2,0.7c0.7,0.6,0.7,1.7,0.6,2.6c-1.1,0-2.6,0.5-3.4-0.6C81.3,9.4,81.4,8.4,81.6,7.5
			z"/>
		<path class="st8" d="M86.4,7.5c1-0.1,2.3-0.2,3,0.7c0.5,0.8,0.4,1.8,0.4,2.7c-1.1,0-2.4,0.3-3.2-0.6C86,9.5,85.7,8.2,86.4,7.5z"/>
		<path class="st8" d="M97.5,13.3c2.4-0.8,4.5-2.2,6.9-2.9c0.2,1.4,0.7,3.5-1,4.1c-2.4,0.9-4.6,2.2-7,2.9
			C95.9,16.1,95.9,14,97.5,13.3z"/>
		<path class="st8" d="M86.2,11.6c1-0.3,2.1-0.1,3.1,0c0.9,0.1,1.1,1.1,1.7,1.5c1.4,0.5,3-0.1,4.4,0.5c0.1,1.1-0.6,1.9-1.3,2.6
			c0.2,2.8,0.7,5.6,0.9,8.5c-1.1,0.3-3.3,0.8-3.4-0.9c-0.3-2.6-0.5-5.2-0.9-7.8c-0.2-0.1-0.5-0.2-0.6-0.3c-0.1,2.6-0.1,5.2,0,7.9
			c0,0.6,0,1.4-0.7,1.6c-1.1,0.2-2.3,0.1-3.4-0.2c-0.5-3,0-6-0.3-9c-0.1-0.2-0.2-0.5-0.3-0.7c-0.5,2.8-0.5,5.7-1.1,8.5
			c-0.3,1.7-3.8,1.7-3.4-0.2c0.2-2.3,0.6-4.6,0.8-6.9c0.1-0.8-0.6-1.3-0.9-2c0.1-0.4,0.2-0.9,0.3-1.3c1.2-0.1,2.5-0.1,3.7-0.1
			C85.2,12.8,85.6,12.1,86.2,11.6z"/>
		<path class="st8" d="M99.6,19.6c1.6-0.6,3.1-1.8,4.9-2c0,1.4,0.7,3.3-0.9,4.1c-2.4,1.1-4.9,2.2-7.3,3.2c-0.6-1-0.6-2.3-0.1-3.4
			C96.9,20.4,98.4,20.2,99.6,19.6z"/>
		<path class="st8" d="M68,31.3c0.7-0.2,1.7-0.5,2.2,0.2c0.1,2.9-0.1,5.8,0,8.7c0.1,1.2,0.8,2.5,2.1,2.8c1.6,0.5,3.3-0.8,3.4-2.4
			c0.3-3.2-0.1-6.4,0.2-9.5c0.7,0,1.3,0,2,0c0.1,3.2,0.1,6.3,0,9.5c-0.1,2.8-2.9,5.2-5.7,4.7c-2.5-0.2-4.4-2.6-4.3-5
			C67.9,37.3,68,34.3,68,31.3z"/>
		<g>
			<path class="st8" d="M85.2,31.2c3.8-1,8.1,1.7,8.7,5.6c1,4.2-2.6,8.6-6.9,8.6c-3.9,0.2-7.3-3.2-7.3-7C79.5,35,82,31.9,85.2,31.2z
				 M85.6,33.4c-2.1,0.5-3.7,2.5-3.8,4.6c-0.3,3.1,2.9,5.8,6,5.1c2.8-0.4,4.7-3.6,3.9-6.2C91.1,34.3,88.1,32.6,85.6,33.4z"/>
		</g>
		<path class="st8" d="M95.1,38.8c-0.6-4.7,4.3-8.8,8.8-7.6c1.1,0.3,0.7,1.6,0.9,2.5c-1.5-0.3-3.2-0.8-4.6,0c-3.1,1.3-3.8,5.8-1.4,8
			c1.5,1.6,3.9,1.7,5.9,1c0,0.8,0,1.5,0,2.3C100.4,46.5,95.3,43.3,95.1,38.8z"/>
		<g>
			<path class="st8" d="M114.1,31.9c0.5-1,1.9-0.7,2.8-0.7c0.5,2.7,0.1,5.5,0.3,8.3c0,1.9,0.1,3.8-0.2,5.7c-0.7,0-1.3-0.1-2-0.1
				c-0.1-1,0.4-2.2-0.5-3c-1.4-0.3-2.9-0.4-4.2,0.2c-1.1,0.6-1.4,2-2.2,2.8c-0.8,0.2-1.7,0.1-2.5,0.1
				C108.5,40.8,111.2,36.3,114.1,31.9z M111.8,39.8c1.1,0.1,2.2,0.1,3.2-0.1c0-1.5,0.1-3,0-4.5C113.6,36.5,112.7,38.1,111.8,39.8z"
				/>
		</g>
		<path class="st8" d="M119.7,31.2c0.6,0,1.3,0,1.9,0c0.4,1.9,0.1,3.7,0.2,5.6c0,2.8,0.1,5.6-0.1,8.4c-0.7,0.1-1.3,0.1-2,0
			C119.6,40.5,119.5,35.8,119.7,31.2z"/>
		<path class="st8" d="M124.3,31.2c0.6,0,1.3,0,1.9,0c0.2,1.9,0,3.8,0.2,5.7c1.6-1.5,2.7-3.5,4.3-5.1c0.8-0.9,2-0.6,3.1-0.6
			c-1.4,2.2-3.4,4-4.7,6.3c-0.5,0.9,0.3,1.8,0.8,2.4c1.3,1.8,3,3.3,4,5.3c-1.1,0-2.4,0.2-3.2-0.7c-0.9-1-1.7-2.2-2.6-3.2
			c-0.4-0.4-0.8-1.3-1.6-0.9c-0.4,1.6-0.1,3.2-0.3,4.8c-0.7,0-1.3,0-2,0c-0.3-2.4,0-4.8-0.1-7.2C124.2,35.7,124,33.5,124.3,31.2z"/>
		<path class="st8" d="M135.9,31.2c2.3-0.1,4.7-0.1,7,0c0.1,0.7,0.1,1.3,0.1,2c-1.3,0.2-2.5,0.1-3.8,0.2c-1.4-0.2-1.4,1.7-1.2,2.6
			c0.4,1.8,2.5,0.9,3.7,1c0.1,0.8,0.1,1.5,0,2.3c-1.2,0-2.4,0-3.7,0.1c-0.1,1.2-0.1,2.4,0.1,3.7c1.6,0.1,3.2,0,4.8,0.1
			c0.1,0.7,0.1,1.3,0,2c-2.3,0.1-4.7,0.1-7.1,0c-0.2-2.5,0-5-0.1-7.6C135.8,35.5,135.6,33.3,135.9,31.2z"/>
		<path class="st8" d="M146.2,31.9c-0.1-1,1.3-0.8,2-0.7c0.3,0.5,0.2,1.2,0.3,1.7c-0.1,2.5,0,4.9-0.1,7.4c0,1.3-0.4,2.7-1.4,3.6
			c-0.9,0.9-2.1,1.2-3.3,1.6c-0.2-0.7-0.4-1.4-0.5-2.1c1.2-0.5,2.7-1,2.8-2.4C146.4,38,146.1,34.9,146.2,31.9z"/>
		<path class="st8" d="M149.9,31.4c0.7-0.2,1.4-0.2,2.2-0.1c0.1,4.6,0.1,9.3,0,13.9c-0.7,0-2.1,0.5-2.2-0.6
			C149.9,40.1,149.9,35.7,149.9,31.4z"/>
		<path class="st8" d="M56.3,31.4c0.7-0.2,1.4-0.2,2.1,0c0.1,1.8,0,3.7,0.1,5.6c1.6-1.6,2.8-3.5,4.3-5.1c0.8-0.9,2.1-0.5,3.1-0.5
			c-1.5,2.1-3.3,4-4.8,6.1c-0.5,0.6-0.1,1.4,0.3,1.8c1.6,1.9,3.2,3.8,4.7,5.7c-1.1,0.2-2.5,0.4-3.3-0.6c-1.2-1.4-2.2-3-3.6-4.3
			c-0.2,0.1-0.5,0.1-0.6,0.2c-0.4,1.6-0.1,3.2-0.3,4.8c-0.7,0-1.3,0-1.9,0C56.2,40.6,56.3,36,56.3,31.4z"/>
	</g>
</g>
</svg>
